<svg xmlns="http://www.w3.org/2000/svg" width="340" height="81.29179446897803" viewBox="0 0 340 81.29179446897803" class="css-1j8o68f"><defs id="SvgjsDefs1386"></defs><g id="SvgjsG1387" featurekey="symbolFeature-0" transform="matrix(2.1739130434782608,0,0,2.1739130434782608,20,20)" fill="#0074e4"><g xmlns="http://www.w3.org/2000/svg"><path d="M45,12.5l-7-2l-1-3h-1l-4-4h-7v11h7v5h2.051C34.032,19.334,34,19.171,34,19c0-2.481,2.019-4.5,4.5-4.5S43,16.519,43,19   c0,0.171-0.032,0.334-0.051,0.5H46v-3h-1V12.5z M28,6.5h-1v-1h1V6.5z M31,6.5h-2v-1h2V6.5z M32,10.5v-2h4.279l0.666,2H32z"></path><path d="M38.5,15.5c-1.933,0-3.5,1.566-3.5,3.5c0,1.933,1.567,3.5,3.5,3.5S42,20.933,42,19C42,17.066,40.433,15.5,38.5,15.5z    M38.5,21.5c-1.379,0-2.5-1.121-2.5-2.5s1.121-2.5,2.5-2.5S41,17.621,41,19S39.879,21.5,38.5,21.5z"></path><path d="M22,2.5H0v12h22V2.5z M5,5.5H4v-1h1V5.5z M20,5.5H6v-1h14V5.5z"></path><path d="M24,14.5v-12C24,1.636,23.478,0,21.5,0v1c1.411,0,1.497,1.252,1.5,1.5v12H24z"></path><path d="M6.5,22.5c1.762,0,3.205-1.307,3.449-3h1.102c0.244,1.693,1.688,3,3.449,3s3.205-1.307,3.449-3H19v-1h-1.051   c-0.244-1.694-1.688-3-3.449-3s-3.205,1.306-3.449,3H9.949c-0.244-1.694-1.688-3-3.449-3s-3.205,1.306-3.449,3H0v1h3.051   C3.295,21.193,4.738,22.5,6.5,22.5z M14.5,16.5c1.379,0,2.5,1.121,2.5,2.5s-1.121,2.5-2.5,2.5S12,20.379,12,19   S13.121,16.5,14.5,16.5z M6.5,16.5C7.879,16.5,9,17.621,9,19s-1.121,2.5-2.5,2.5S4,20.379,4,19S5.121,16.5,6.5,16.5z"></path><rect x="29" y="15.5" width="2" height="5"></rect><rect x="20" y="15.5" width="8" height="5"></rect><circle cx="6.5" cy="19" r="1.5"></circle><circle cx="14.5" cy="19" r="1.5"></circle><circle cx="38.5" cy="19" r="1.5"></circle></g></g><g id="SvgjsG1388" featurekey="nameFeature-0" transform="matrix(1.4613662556982883,0,0,1.4613662556982883,135.82560707318572,-7.700356254852053)" fill="#264e86"><path d="M2.8571 40 l0 -28.571 l20.857 0 l4.2857 4.2857 l0 12 l-4.2857 4.2857 l-13.429 0 l0 8 l-7.4286 0 z M10.286 25.714 l10.286 0 l0 -8 l-10.286 0 l0 8 z M59.42814285714286 15.713999999999999 l0 10 l-4.2857 4.2857 l4.2857 6.5714 l0 3.4286 l-6.8571 0 l-5.9429 -9.7143 l-5.4857 0 l0 9.7143 l-7.4286 0 l0 -28.571 l21.429 0 z M52.00014285714286 24 l0 -6.2857 l-10.857 0 l0 6.2857 l10.857 0 z M64.28571428571428 40 l0 -5.7143 l2.2857 0 l0 -17.143 l-2.2857 0 l0 -5.7143 l12 0 l0 5.7143 l-2.2857 0 l0 17.143 l2.2857 0 l0 5.7143 l-12 0 z M102.28571428571428 11.428999999999998 l7.4286 0 l0 28.571 l-7.4286 0 l0 -16 l-5.0286 9.7143 l-3.7143 0 l-4.9714 -9.7143 l0 16 l-7.4286 0 l0 -28.571 l7.4286 0 l6.8571 12.971 z M139.71442857142856 17.714 l-16.857 0 l0 4.8571 l14.571 0 l0 6.2857 l-14.571 0 l0 4.8571 l16.857 0 l0 6.2857 l-20 0 l-4.2857 -4.2857 l0 -24.286 l24.286 0 l0 6.2857 z"></path></g><g id="SvgjsG1389" featurekey="nameFeature-1" transform="matrix(0.647547981155342,0,0,0.647547981155342,138.1497625150188,53.59988251731116)" fill="#264e86"><path d="M27.143 17.714 l-16.857 0 l0 4.8571 l14.571 0 l0 6.2857 l-14.571 0 l0 4.8571 l16.857 0 l0 6.2857 l-20 0 l-4.2857 -4.2857 l0 -24.286 l24.286 0 l0 6.2857 z M32 40 l0 -3.4286 l7.8857 -10.857 l-7.8857 -10.857 l0 -3.4286 l6.5714 0 l6.2857 9.1429 l6.2857 -9.1429 l6.5714 0 l0 3.4286 l-7.8857 10.857 l7.8857 10.857 l0 3.4286 l-6.5714 0 l-6.2857 -9.1429 l-6.2857 9.1429 l-6.5714 0 z M62.57138571428571 40 l0 -28.571 l20.857 0 l4.2857 4.2857 l0 12 l-4.2857 4.2857 l-13.429 0 l0 8 l-7.4286 0 z M70.00028571428571 25.714 l10.286 0 l0 -8 l-10.286 0 l0 8 z M119.14242857142857 15.713999999999999 l0 10 l-4.2857 4.2857 l4.2857 6.5714 l0 3.4286 l-6.8571 0 l-5.9429 -9.7143 l-5.4857 0 l0 9.7143 l-7.4286 0 l0 -28.571 l21.429 0 z M111.71442857142857 24 l0 -6.2857 l-10.857 0 l0 6.2857 l10.857 0 z M149.143 17.714 l-16.857 0 l0 4.8571 l14.571 0 l0 6.2857 l-14.571 0 l0 4.8571 l16.857 0 l0 6.2857 l-20 0 l-4.2857 -4.2857 l0 -24.286 l24.286 0 l0 6.2857 z M172.857 17.714 l-10.571 0 l0 4.8571 l14 0 l4.2857 4.2857 l0 8.8571 l-4.2857 4.2857 l-17.143 0 l-4.2857 -4.2857 l0 -4.2857 l5.4286 0 l2.2857 2.2857 l10.571 0 l0 -4.8571 l-14 0 l-4.2857 -4.2857 l0 -8.8571 l4.2857 -4.2857 l17.143 0 l4.2857 4.2857 l0 4.2857 l-5.4286 0 z M204.28557142857142 17.714 l-10.571 0 l0 4.8571 l14 0 l4.2857 4.2857 l0 8.8571 l-4.2857 4.2857 l-17.143 0 l-4.2857 -4.2857 l0 -4.2857 l5.4286 0 l2.2857 2.2857 l10.571 0 l0 -4.8571 l-14 0 l-4.2857 -4.2857 l0 -8.8571 l4.2857 -4.2857 l17.143 0 l4.2857 4.2857 l0 4.2857 l-5.4286 0 z M215.42857285714283 33.7143 l7.4286 0 l0 7.2571 l-2.1143 2.1714 l-2.8571 0 l0 -1.4286 l1.1429 -1.1429 l0 -0.57143 l-3.6 0 l0 -6.2857 z M239.7142857142857 40 l0 -5.7143 l2.2857 0 l0 -17.143 l-2.2857 0 l0 -5.7143 l12 0 l0 5.7143 l-2.2857 0 l0 17.143 l2.2857 0 l0 5.7143 l-12 0 z M274.2852857142857 11.428999999999998 l7.4286 0 l0 28.571 l-6.5714 0 l-11.143 -16 l0 16 l-7.4286 0 l0 -28.571 l6.5714 0 l11.143 15.886 l0 -15.886 z M304.00042857142853 17.714 l-9.1429 0 l0 16 l9.1429 0 l2.2857 -2.2857 l5.4286 0 l0 4.2857 l-4.2857 4.2857 l-15.714 0 l-4.2857 -4.2857 l0 -20 l4.2857 -4.2857 l15.714 0 l4.2857 4.2857 l0 4.2857 l-5.4286 0 z"></path></g></svg>